<?xml version="1.0" standalone="no"?>
<!DOCTYPE svg PUBLIC "-//W3C//DTD SVG 20010904//EN"
 "http://www.w3.org/TR/2001/REC-SVG-20010904/DTD/svg10.dtd">
<svg version="1.0" xmlns="http://www.w3.org/2000/svg"
 width="260.000000pt" height="260.000000pt" viewBox="0 0 260.000000 260.000000"
 preserveAspectRatio="xMidYMid meet">
<metadata>
Created by potrace 1.14, written by Peter Selinger 2001-2017
</metadata>
<g transform="translate(0.000000,260.000000) scale(0.100000,-0.100000)"
fill="#000000" stroke="none">
<path d="M1120 2080 c-5 -3 -18 -66 -30 -140 -12 -74 -24 -148 -26 -164 -3
-16 -32 -198 -65 -405 -33 -207 -64 -394 -70 -416 -48 -177 -206 -270 -358
-209 -42 16 -135 108 -146 144 -3 11 -9 20 -13 20 -4 0 -51 -42 -106 -93 -111
-105 -109 -96 -42 -182 56 -72 127 -124 206 -151 79 -26 253 -25 333 3 44 15
57 17 57 6 0 -16 -19 -15 310 -15 323 -1 379 4 495 41 104 34 235 104 291 156
6 6 26 24 45 40 125 110 240 307 282 485 78 327 -10 613 -237 769 -120 83
-226 107 -483 111 -372 6 -434 6 -443 0z m613 -275 c162 -42 263 -154 292
-320 55 -326 -151 -661 -451 -731 -47 -11 -123 -16 -242 -17 l-173 -2 6 40 c8
59 14 92 29 170 14 70 20 104 31 180 4 22 8 51 11 65 2 14 15 97 29 185 14 88
28 171 30 184 2 13 7 45 11 70 4 25 8 53 10 63 1 9 6 38 10 65 3 26 8 51 11
56 8 14 335 8 396 -8z"/>
</g>
</svg>
